# xmcd
#
# Track frame offsets:
#	150
#	7032
#	24110
#	41389
#	49186
#	71518
#	90994
#	112155
#	132025
#	145053
#	168149
#
# Disc length: 2495 seconds
#
# Revision: 0
# Processed by: cddbd v1.5.2PL0 Copyright (c) Steve Scherf et al.
# Submitted via: dBpowerAMP V4.0
#
DISCID=8209bd0b
DTITLE=Jack Bruce - Harmony Row
DYEAR=1900
DGENRE=
TTITLE0=Can You Follow
TTITLE1=Escape To The Royal Wood
TTITLE2=You Burned The Tables On Me
TTITLE3=There's A Forest
TTITLE4=Morning Story
TTITLE5=Folk Song
TTITLE6=Smiles And Grins
TTITLE7=Post War
TTITLE8=A Letter Of Thanks
TTITLE9=Victoria Sage
TTITLE10=The Consul At Sunset
EXTD=
EXTT0=
EXTT1=
EXTT2=
EXTT3=
EXTT4=
EXTT5=
EXTT6=
EXTT7=
EXTT8=
EXTT9=
EXTT10=
PLAYORDER=
